<?xml version="1.0" standalone="no"?>
<!DOCTYPE svg PUBLIC "-//W3C//DTD SVG 20010904//EN"
 "http://www.w3.org/TR/2001/REC-SVG-20010904/DTD/svg10.dtd">
<svg version="1.0" xmlns="http://www.w3.org/2000/svg"
 width="500.000000pt" height="500.000000pt" viewBox="0 0 500.000000 500.000000"
 preserveAspectRatio="xMidYMid meet">

<g transform="translate(0.000000,500.000000) scale(0.100000,-0.100000)"
fill="#000000" stroke="none">
<path d="M1836 3215 c3 -6 -28 -32 -69 -58 -92 -58 -177 -144 -219 -222 -31
-57 -33 -65 -33 -165 0 -95 3 -110 28 -162 91 -185 337 -330 672 -394 127 -25
445 -25 570 -1 357 70 619 236 690 438 9 24 15 77 15 124 0 74 -3 89 -35 151
-33 65 -62 101 -131 166 l-30 28 4 -71 c8 -141 -64 -231 -215 -269 -36 -9 -43
-15 -43 -35 0 -65 -138 -155 -290 -190 -102 -24 -311 -31 -419 -15 -155 23
-279 76 -340 145 -25 29 -31 44 -31 83 0 26 7 55 14 65 12 16 8 30 -35 115
-28 53 -60 132 -73 175 l-24 78 71 -68 c41 -38 103 -84 142 -105 70 -36 201
-79 240 -77 11 0 -16 9 -60 20 -133 33 -237 89 -326 179 -42 42 -75 72 -73 65z
m1551 -307 c-3 -8 -6 -5 -6 6 -1 11 2 17 5 13 3 -3 4 -12 1 -19z m20 -35 c-3
-10 -5 -4 -5 12 0 17 2 24 5 18 2 -7 2 -21 0 -30z m-1829 -43 c-10 -57 2 -141
29 -198 25 -53 95 -119 156 -148 29 -13 46 -24 39 -24 -25 0 -108 49 -148 87
-63 62 -88 123 -89 218 0 71 7 115 18 115 2 0 0 -23 -5 -50z m1839 -46 c-11
-118 -80 -234 -189 -320 -58 -46 -238 -144 -262 -144 -6 1 24 18 68 40 153 77
264 169 320 264 29 49 56 143 56 193 0 18 3 33 6 33 4 0 4 -30 1 -66z"/>
<path d="M3060 3022 c-21 -42 -48 -90 -59 -107 -19 -27 -19 -31 -4 -47 16 -18
79 -26 69 -9 -4 5 2 7 12 4 23 -5 77 38 97 78 30 57 8 129 -45 147 l-30 11
-40 -77z"/>
<path d="M2338 2943 c12 -2 30 -2 40 0 9 3 -1 5 -23 4 -22 0 -30 -2 -17 -4z"/>
<path d="M2965 2860 c-3 -5 1 -10 10 -10 9 0 13 5 10 10 -3 6 -8 10 -10 10 -2
0 -7 -4 -10 -10z"/>
<path d="M1982 2814 c-47 -102 68 -201 292 -251 113 -25 358 -23 470 5 155 39
264 106 281 172 l6 25 -78 -3 -78 -4 -71 -67 c-110 -103 -83 -98 -383 -68
l-260 25 -53 58 c-29 32 -63 68 -74 80 -12 13 -20 25 -18 27 3 2 -2 9 -9 15
-11 9 -16 6 -25 -14z"/>
<path d="M3217 2055 c-39 -38 -60 -94 -72 -189 -5 -40 -13 -59 -26 -67 -11 -5
-19 -20 -19 -33 0 -19 4 -22 24 -19 22 5 25 0 37 -51 9 -42 16 -55 27 -51 7 3
18 5 24 5 7 0 9 19 5 54 -5 54 -5 55 24 61 32 7 34 9 43 49 7 28 7 28 -30 22
l-36 -7 7 58 c5 42 13 65 31 83 22 23 25 23 41 7 16 -16 18 -16 40 4 21 20 21
24 7 50 -13 26 -59 59 -82 59 -5 0 -25 -16 -45 -35z"/>
<path d="M3480 2051 c-38 -40 -70 -126 -70 -188 0 -41 -9 -63 -26 -63 -8 0
-14 -3 -14 -7 0 -5 -3 -18 -6 -31 -6 -21 -4 -22 19 -17 23 6 26 3 41 -48 14
-47 19 -54 36 -50 17 5 20 14 20 59 0 52 1 55 29 60 19 4 31 14 35 28 12 43 8
47 -30 40 -36 -7 -36 -6 -30 22 3 16 8 45 12 66 3 20 16 46 29 58 l23 22 12
-22 12 -22 24 23 c13 12 24 27 24 32 0 16 -67 77 -86 77 -9 0 -34 -17 -54 -39z"/>
<path d="M1858 2068 l-37 -10 -3 -61 -3 -62 -37 -3 c-36 -3 -38 -5 -38 -38 0
-32 2 -34 33 -34 l33 0 13 -152 c7 -84 14 -155 16 -156 2 -2 16 2 32 10 l28
13 3 143 3 142 61 0 61 0 -7 31 c-3 17 -6 35 -6 40 0 5 -24 9 -53 9 l-53 0 4
70 c2 39 0 70 -4 69 -5 -1 -26 -6 -46 -11z"/>
<path d="M1022 1968 c-11 -14 -46 -172 -58 -264 l-6 -52 35 -4 c35 -4 36 -3
46 39 7 24 17 43 25 43 7 0 27 3 42 6 26 5 31 2 42 -29 16 -44 32 -58 61 -50
31 8 25 33 -43 193 l-54 125 -39 3 c-24 2 -44 -2 -51 -10z m82 -155 c7 -31 6
-33 -18 -33 -28 0 -28 -3 -10 78 6 24 7 25 14 7 4 -11 11 -35 14 -52z"/>
<path d="M2767 1968 c-34 -7 -61 -22 -88 -48 -40 -38 -46 -61 -42 -165 2 -45
70 -105 120 -105 21 0 48 -3 61 -6 20 -6 22 -3 22 39 0 44 0 44 -41 51 -60 10
-79 23 -79 54 1 37 38 79 85 95 37 13 40 17 43 55 4 47 3 47 -81 30z"/>
<path d="M1305 1956 l-40 -12 1 -157 c1 -87 4 -161 8 -164 3 -3 20 -2 38 3 32
9 33 12 43 84 10 72 44 150 66 150 5 0 21 -8 35 -17 22 -14 27 -14 35 -2 16
26 9 52 -22 81 l-31 30 -39 -26 c-21 -14 -41 -26 -43 -26 -3 0 -6 15 -8 33
l-3 34 -40 -11z"/>
<path d="M1561 1843 c-28 -31 -51 -63 -51 -70 0 -7 10 -33 22 -58 18 -37 28
-46 57 -51 30 -6 38 -3 58 22 21 27 23 27 23 7 0 -35 11 -53 33 -53 19 0 20 4
13 91 -4 51 -13 104 -21 118 -12 24 -52 51 -75 51 -4 0 -31 -26 -59 -57z m75
-27 c7 -17 -21 -86 -35 -86 -15 0 -33 38 -25 53 13 22 37 47 46 47 5 0 11 -6
14 -14z"/>
<path d="M2082 1847 c-58 -58 -62 -78 -32 -136 28 -55 87 -69 110 -26 15 28
30 17 30 -22 0 -18 6 -23 24 -23 24 0 24 1 19 78 -8 120 -25 160 -78 176 -16
5 -33 -6 -73 -47z m67 -65 c-11 -30 -28 -52 -39 -52 -4 0 -12 10 -17 23 -9 18
-6 27 15 49 32 35 57 22 41 -20z"/>
<path d="M2318 1883 c-71 -45 -76 -193 -7 -228 31 -16 57 -11 117 27 30 19 32
22 18 36 -13 13 -21 14 -54 4 -83 -25 -85 -7 -3 31 61 28 74 48 64 101 -9 44
-84 60 -135 29z m62 -93 c-39 -26 -46 -28 -49 -13 -4 22 26 43 63 43 l31 0
-45 -30z"/>
<path d="M2937 1893 c-54 -6 -71 -43 -64 -141 7 -96 21 -112 97 -112 84 0 98
19 101 137 4 126 0 130 -134 116z m75 -109 c1 -31 1 -57 -2 -59 -3 -1 -20 0
-38 2 l-33 5 4 52 c3 28 6 52 6 54 1 1 14 2 30 2 28 0 29 -2 33 -56z"/>
<path d="M3689 1886 c-34 -19 -59 -73 -59 -124 0 -58 14 -89 50 -107 29 -15
33 -14 85 12 37 18 55 32 53 42 -4 17 -30 19 -85 6 -53 -12 -38 9 27 40 59 28
60 29 60 71 0 24 -6 47 -15 54 -23 19 -87 22 -116 6z m91 -70 c0 -4 -78 -56
-85 -56 -12 0 -4 21 15 40 17 17 70 29 70 16z"/>
<path d="M3909 1885 c-34 -18 -59 -72 -59 -123 0 -58 15 -89 50 -107 31 -16
34 -15 86 10 39 19 54 32 52 44 -4 17 -31 20 -85 7 -52 -12 -38 8 27 39 59 28
60 29 60 71 0 33 -5 46 -22 58 -28 20 -74 20 -109 1z m91 -69 c0 -4 -78 -56
-85 -56 -12 0 -4 21 15 40 17 17 70 29 70 16z"/>
<path d="M1520 1365 c0 -25 -1 -48 -2 -52 -6 -16 54 -14 78 2 16 10 24 25 24
45 0 34 -23 50 -69 50 -30 0 -31 -1 -31 -45z m78 -4 c4 -25 -12 -41 -40 -41
-14 0 -18 8 -18 36 0 33 2 35 28 32 20 -2 28 -9 30 -27z"/>
<path d="M1720 1355 c0 -30 5 -55 10 -55 6 0 10 7 10 15 0 8 6 15 14 15 7 0
19 -7 26 -15 18 -22 33 -19 20 4 -7 13 -7 22 0 26 16 10 12 52 -6 59 -9 3 -29
6 -45 6 -29 0 -29 -1 -29 -55z m65 15 c0 -8 -10 -16 -22 -18 -18 -3 -23 2 -23
18 0 16 5 21 23 18 12 -2 22 -10 22 -18z"/>
<path d="M1910 1355 c0 -30 5 -55 10 -55 6 0 10 25 10 55 0 30 -4 55 -10 55
-5 0 -10 -25 -10 -55z"/>
<path d="M2040 1365 c0 -25 0 -48 -1 -52 0 -4 4 -9 10 -11 6 -2 11 10 11 30
l1 33 28 -32 c15 -18 31 -33 34 -33 4 0 7 25 7 55 0 30 -4 55 -10 55 -5 0 -10
-15 -10 -32 l-1 -33 -27 33 c-15 18 -30 32 -34 32 -5 0 -8 -20 -8 -45z"/>
<path d="M2240 1365 c0 -25 0 -48 -1 -52 0 -4 4 -9 10 -11 6 -2 11 6 11 17 0
27 17 27 40 -1 10 -13 22 -20 26 -15 4 4 -3 18 -16 32 l-23 25 23 25 c13 14
18 25 11 25 -6 0 -23 -12 -36 -27 l-24 -28 -1 28 c0 15 -4 27 -10 27 -5 0 -10
-20 -10 -45z"/>
<path d="M2554 1396 c-3 -7 -4 -17 -3 -22 1 -5 -1 -17 -5 -26 -15 -33 1 -49
41 -46 21 2 39 7 41 11 5 15 2 37 -5 36 -27 -4 -35 1 -23 16 7 8 10 22 6 30
-7 19 -45 20 -52 1z m36 -5 c0 -6 -4 -13 -10 -16 -5 -3 -10 1 -10 9 0 9 5 16
10 16 6 0 10 -4 10 -9z m0 -56 c10 -13 9 -15 -9 -15 -12 0 -21 6 -21 15 0 8 4
15 9 15 5 0 14 -7 21 -15z"/>
<path d="M2857 1392 c-10 -10 -17 -28 -17 -40 0 -29 43 -56 75 -48 35 9 31 24
-6 22 -38 -1 -60 24 -40 48 8 9 27 16 43 16 17 0 27 4 23 10 -10 17 -61 11
-78 -8z"/>
<path d="M3050 1360 c-13 -27 -20 -53 -16 -57 4 -4 12 0 17 10 6 9 21 17 34
17 13 0 28 -8 34 -17 5 -10 12 -15 15 -12 10 9 -35 109 -49 109 -6 0 -22 -22
-35 -50z m50 -12 c0 -5 -7 -8 -15 -8 -15 0 -20 21 -8 33 7 7 23 -11 23 -25z"/>
<path d="M3230 1354 c0 -40 3 -54 13 -51 6 2 11 11 9 21 -2 12 5 16 28 16 16
0 30 5 30 10 0 6 -13 10 -28 10 -19 0 -29 5 -29 15 0 10 10 15 29 15 15 0 28
5 28 10 0 6 -18 10 -40 10 l-40 0 0 -56z"/>
<path d="M3410 1355 l0 -55 40 0 c22 0 40 5 40 10 0 6 -13 10 -30 10 -20 0
-30 5 -30 15 0 9 9 15 25 15 14 0 25 4 25 8 0 5 -10 8 -21 8 -12 -1 -24 5 -26
12 -3 8 6 12 26 12 17 0 31 5 31 10 0 6 -18 10 -40 10 l-40 0 0 -55z"/>
</g>
</svg>
